<svg width="43" height="36" viewBox="0 0 43 36" fill="none" xmlns="http://www.w3.org/2000/svg">
<path d="M20.95 35.55C20.6971 35.55 20.4506 35.525 20.2104 35.475C19.9701 35.425 19.7333 35.3334 19.5 35.2L8 28.9C7.53334 28.6334 7.15834 28.2688 6.875 27.8063C6.59167 27.3438 6.45 26.825 6.45 26.25V16.05L1.4 13.3C1.1381 13.1515 0.947618 12.9657 0.828552 12.7429C0.709518 12.52 0.650002 12.2724 0.650002 12C0.650002 11.7277 0.709518 11.48 0.828552 11.2572C0.947618 11.0343 1.1381 10.8486 1.4 10.7L19.5 0.800024C19.7289 0.666691 19.9642 0.566691 20.2059 0.500024C20.4476 0.433358 20.6956 0.400024 20.95 0.400024C21.2044 0.400024 21.4524 0.433358 21.6941 0.500024C21.9358 0.566691 22.1711 0.666691 22.4 0.800024L42.2 11.55C42.4667 11.7167 42.6667 11.9161 42.8 12.1484C42.9333 12.3806 43 12.6311 43 12.9V26.35C43 26.775 42.8554 27.1313 42.5663 27.4188C42.2771 27.7063 41.9187 27.85 41.4913 27.85C41.0638 27.85 40.7083 27.7063 40.425 27.4188C40.1417 27.1313 40 26.775 40 26.35V13.75L35.45 16.05V26.25C35.45 26.825 35.3083 27.3438 35.025 27.8063C34.7417 28.2688 34.3667 28.6334 33.9 28.9L22.4 35.2C22.1667 35.3334 21.9299 35.425 21.6897 35.475C21.4494 35.525 21.2029 35.55 20.95 35.55ZM20.95 20.6L36.7 12L20.95 3.55002L5.3 12L20.95 20.6ZM20.95 32.6L32.45 26.25V17.85L22.4 23.25C22.1667 23.3834 21.9333 23.475 21.7 23.525C21.4667 23.575 21.2167 23.6 20.95 23.6C20.6833 23.6 20.4417 23.575 20.225 23.525C20.0083 23.475 19.7833 23.3834 19.55 23.25L9.45 17.75V26.25L20.95 32.6Z" fill="url(#paint0_linear_3_70)"/>
<defs>
<linearGradient id="paint0_linear_3_70" x1="21.825" y1="0.400024" x2="21.825" y2="35.55" gradientUnits="userSpaceOnUse">
<stop stop-color="#4B7BB7"/>
<stop offset="1" stop-color="#73A0D8"/>
</linearGradient>
</defs>
</svg>
