<svg width="376" height="56" viewBox="0 0 376 56" fill="none" xmlns="http://www.w3.org/2000/svg">
<path d="M10.6122 3.04893H12.8614V5.27119H14.9189V3.04893H17.1683V9.77832H14.9191V7.52481H12.8616V9.77832H10.6124V3.04893H10.6122ZM20.1261 5.28057H18.1461V3.04893H24.3564V5.28057H22.3755V9.77832H20.1263V5.28057H20.1261ZM25.342 3.04893H27.6877L29.1302 5.41348L30.5715 3.04893H32.9175V9.77832H30.6774V6.44297L29.1301 8.83555H29.0915L27.5431 6.44297V9.77832H25.342V3.04893ZM34.0371 3.04893H36.2869V7.5541H39.4501V9.77832H34.0371V3.04893ZM7.32294 12.8561L10.5403 48.9433L24.9782 52.9511L39.4561 48.9375L42.6769 12.856L7.32294 12.8561ZM35.9657 21.4199L35.7642 23.6638L35.6758 24.6587H35.6612H25H24.9846H18.7389L19.1433 29.1906H24.9846H25H34.0801H35.2728L35.1648 30.3793L34.1248 42.0316L34.0582 42.7789L25 45.2895V45.2903L24.9797 45.2961L15.9134 42.7791L15.2932 35.8298H17.341H19.7362L20.0514 39.3597L24.9805 40.6909L24.9846 40.6896V40.6893L29.9212 39.3572L30.4346 33.6169H25H24.9846H15.0955L14.0077 21.4199L13.9017 20.2327H24.9846H25H36.0717L35.9657 21.4199Z" fill="#8EBFED"/>
<path d="M83.9281 7.55879V9.70899H78.4299V3.04893H83.9281V5.40537H80.7863V7.55879H83.9281ZM89.5802 5.40537H91.7767V3.04893H86.2778C86.2778 3.04893 86.2778 4.23174 86.2778 5.40537C87.0135 6.14102 87.3971 6.49317 88.461 7.55713C87.8391 7.55713 86.2778 7.55918 86.2778 7.55918V9.70899H91.7767V7.55879L89.5802 5.40537ZM97.3736 5.40537H99.5699V3.04893H94.0713C94.0713 3.04893 94.0713 4.23174 94.0713 5.40537C94.8067 6.14102 95.1905 6.49317 96.2544 7.55713C95.6328 7.55713 94.0713 7.55918 94.0713 7.55918V9.70899H99.57V7.55879L97.3736 5.40537ZM106.812 12.8742L103.472 49.0545L88.9999 52.951L74.5276 49.0545L71.188 12.8742H106.812ZM100.082 20.2309H88.9868H77.6958L78.2357 24.5999H88.9868H89.5907L88.9868 24.8513L78.6287 29.1654L78.9723 33.4359L88.9868 33.4685L94.3543 33.4855L94.0104 39.18L88.9868 40.5944V40.5899L88.9456 40.6013L84.0937 39.3765L83.7992 35.8418H83.7832H79.2827H79.2669L79.856 42.6656L88.9868 45.3657V45.3608L89.0032 45.3657L98.0852 42.7147L99.2637 29.1655H88.9868H88.9614L88.9868 29.1546L99.6397 24.6L100.082 20.2309Z" fill="#8EBFED"/>
<path d="M135 14.5833C135 10.3952 138.395 7 142.583 7H169.417C173.605 7 177 10.3952 177 14.5833V41.4167C177 45.6048 173.605 49 169.417 49H142.583C138.395 49 135 45.6048 135 41.4167V14.5833ZM156 22.1667C155.034 22.1667 154.25 22.9502 154.25 23.9167V37.9167C154.25 38.2389 153.989 38.5 153.667 38.5H150.75C149.784 38.5 149 39.2835 149 40.25C149 41.2165 149.784 42 150.75 42H153.667C155.922 42 157.75 40.1718 157.75 37.9167V23.9167C157.75 22.9502 156.966 22.1667 156 22.1667ZM160.667 26.25V29.75C160.667 32.0052 162.495 33.8333 164.75 33.8333H165.917C166.239 33.8333 166.5 34.0944 166.5 34.4167V37.9167C166.5 38.2389 166.239 38.5 165.917 38.5H162.417C161.45 38.5 160.667 39.2835 160.667 40.25C160.667 41.2165 161.45 42 162.417 42H165.917C168.172 42 170 40.1718 170 37.9167V34.4167C170 32.1615 168.172 30.3333 165.917 30.3333H164.75C164.428 30.3333 164.167 30.0722 164.167 29.75V26.25C164.167 25.9278 164.428 25.6667 164.75 25.6667H168.25C169.216 25.6667 170 24.8831 170 23.9167C170 22.9502 169.216 22.1667 168.25 22.1667H164.75C162.495 22.1667 160.667 23.9948 160.667 26.25Z" fill="#8EBFED"/>
<path d="M207.375 6.125H238.625C242.063 6.125 244.875 8.9375 244.875 12.375V43.625C244.875 47.0625 242.063 49.875 238.625 49.875H207.375C203.937 49.875 201.125 47.0625 201.125 43.625V12.375C201.125 8.9375 203.937 6.125 207.375 6.125Z" fill="#8EBFED"/>
<path d="M240.969 28C240.969 25.5 238 23.4687 233.625 22.0625C234.719 17.5312 234.25 13.9375 232.219 12.8438C231.594 12.5313 231.125 12.375 230.5 12.375C228.469 12.375 225.969 13.7812 223.469 16.2812C220.812 13.7812 218.312 12.375 216.281 12.375C215.656 12.375 215.031 12.5313 214.563 12.8438C212.531 13.9375 212.062 17.5312 213.156 22.0625C208.781 23.4687 205.812 25.5 205.812 28C205.812 30.5 208.781 32.5312 213.156 33.9375C212.062 38.4687 212.375 42.0625 214.563 43.3125C215.031 43.625 215.656 43.7813 216.281 43.7813C218.312 43.7813 220.813 42.375 223.313 39.875C225.813 42.375 228.469 43.7813 230.344 43.7813C230.969 43.7813 231.594 43.625 232.062 43.3125C234.094 42.0625 234.563 38.4687 233.469 33.9375C238 32.5312 240.969 30.3438 240.969 28ZM230.5 14.0937C230.812 14.0937 231.125 14.0937 231.281 14.25C232.219 14.875 232.688 16.9063 232.375 19.5625C232.219 20.1875 232.219 20.9687 232.062 21.5937C230.656 21.2812 229.094 20.9687 227.531 20.8125C226.594 19.5625 225.656 18.3125 224.719 17.375C226.906 15.1875 229.094 14.0937 230.5 14.0937ZM228.156 30.8125C227.687 31.75 227.062 32.5312 226.594 33.4688C225.5 33.4688 224.562 33.625 223.469 33.625C222.375 33.625 221.281 33.625 220.344 33.4688C219.719 32.6875 219.25 31.75 218.781 30.8125C218.313 29.875 217.844 28.9375 217.375 28C217.844 27.0625 218.313 26.125 218.781 25.1875C219.25 24.25 219.875 23.3125 220.5 22.5312C221.437 22.5312 222.531 22.375 223.625 22.375C224.719 22.375 225.656 22.375 226.75 22.5312C227.375 23.3125 227.844 24.25 228.469 25.1875C228.938 26.125 229.406 27.0625 229.875 28C229.25 28.9375 228.625 29.875 228.156 30.8125ZM230.5 30.0312C230.812 30.9687 231.125 31.75 231.437 32.6875C230.5 32.8438 229.563 33 228.625 33.1562C228.938 32.6875 229.25 32.2187 229.563 31.5937C229.875 31.125 230.187 30.5 230.5 30.0312ZM223.313 37.375C222.688 36.75 222.063 35.9688 221.438 35.1875C222.063 35.1875 222.688 35.1875 223.313 35.1875C223.938 35.1875 224.562 35.1875 225.187 35.1875C224.562 35.9688 223.938 36.75 223.313 37.375ZM218 33.1562C217.063 33 216.125 32.8438 215.188 32.6875C215.5 31.75 215.813 30.9687 216.125 30.0312C216.438 30.5 216.75 31.125 217.062 31.5937C217.375 32.2187 217.688 32.6875 218 33.1562ZM216.281 25.9687C215.969 25.0312 215.656 24.0938 215.344 23.3125C216.281 23.1562 217.219 23 218.156 22.8437C217.844 23.3125 217.531 23.9375 217.219 24.4062C216.75 24.875 216.437 25.5 216.281 25.9687ZM223.313 18.625C223.938 19.25 224.562 20.0312 225.187 20.8125C224.562 20.8125 223.938 20.8125 223.313 20.8125C222.688 20.8125 222.063 20.8125 221.438 20.8125C222.063 20.0312 222.688 19.25 223.313 18.625ZM229.563 24.4062C229.25 23.7812 228.938 23.3125 228.625 22.8437C229.563 23 230.5 23.1562 231.437 23.3125C231.125 24.25 230.812 25.1875 230.5 25.9687C230.187 25.5 229.875 24.875 229.563 24.4062ZM214.406 19.5625C214.094 16.9063 214.406 14.875 215.5 14.25C215.656 14.0937 215.969 14.0937 216.281 14.0937C217.687 14.0937 219.875 15.1875 222.219 17.5313C221.281 18.625 220.344 19.7187 219.406 20.9688C217.844 21.125 216.281 21.4375 214.875 21.75C214.563 20.9688 214.406 20.1875 214.406 19.5625ZM211.594 31.4375C209.094 30.3438 207.531 29.0937 207.531 27.8437C207.531 26.75 209.094 25.3438 211.594 24.25C212.219 23.9375 212.844 23.7812 213.625 23.625C214.094 25.0312 214.562 26.4375 215.188 27.8437C214.562 29.25 213.938 30.6563 213.625 32.0625C212.844 32.0625 212.219 31.75 211.594 31.4375ZM215.5 41.75C214.562 41.125 214.094 39.0937 214.406 36.4375C214.563 35.8125 214.563 35.0312 214.875 34.25C216.281 34.5625 217.688 34.875 219.25 35.0312C220.188 36.2813 221.125 37.5312 222.219 38.625C219.875 40.8125 217.687 42.0625 216.281 42.0625C215.969 41.9062 215.656 41.9062 215.5 41.75ZM232.375 36.4375C232.688 39.0937 232.375 41.125 231.281 41.75C231.125 41.9062 230.812 41.9062 230.5 41.9062C229.094 41.9062 226.906 40.8125 224.562 38.4688C225.5 37.375 226.594 36.2812 227.531 34.875C229.094 34.7187 230.656 34.5625 231.906 34.0937C232.063 35.0312 232.219 35.8125 232.375 36.4375ZM235.187 31.4375C234.562 31.75 233.938 31.9063 233.156 32.2188C232.687 30.8125 232.219 29.4062 231.594 28C232.219 26.5938 232.844 25.0313 233.156 23.7813C233.938 23.9375 234.562 24.25 235.187 24.4062C237.687 25.5 239.25 26.75 239.25 28C239.25 29.0937 237.687 30.5 235.187 31.4375Z" fill="white"/>
<path d="M223.469 31.2813C225.344 31.2813 226.75 29.875 226.75 28C226.75 26.125 225.344 24.7188 223.469 24.7188C221.594 24.7188 220.188 26.125 220.188 28C220.188 29.875 221.594 31.2813 223.469 31.2813Z" fill="white"/>
<rect x="329" y="6" width="44" height="44" rx="5" fill="#8EBFED"/>
<path d="M357.942 21.0583C359.746 21.0042 361.459 20.2492 362.716 18.9535C363.974 17.6578 364.677 15.9232 364.677 14.1177C364.677 12.3122 363.974 10.5777 362.716 9.28194C361.459 7.98623 359.746 7.23125 357.942 7.17709H344.058C342.254 7.23125 340.541 7.98623 339.284 9.28194C338.026 10.5777 337.323 12.3122 337.323 14.1177C337.323 15.9232 338.026 17.6578 339.284 18.9535C340.541 20.2492 342.254 21.0042 344.058 21.0583C342.238 21.0899 340.503 21.8352 339.226 23.1338C337.95 24.4324 337.235 26.1803 337.235 28.001C337.235 29.8218 337.95 31.5697 339.226 32.8683C340.503 34.1669 342.238 34.9122 344.058 34.9438C342.247 34.9881 340.524 35.739 339.259 37.036C337.993 38.3329 337.285 40.0733 337.285 41.8854C337.285 43.6976 337.993 45.4379 339.259 46.7349C340.524 48.0319 342.247 48.7827 344.058 48.8271C345.899 48.826 347.665 48.094 348.966 46.792C350.268 45.4899 350.999 43.7244 351 41.8833V21.0583H357.942Z" fill="white"/>
<path d="M357.942 34.9417C361.775 34.9417 364.883 31.8338 364.883 28C364.883 24.1662 361.775 21.0583 357.942 21.0583C354.108 21.0583 351 24.1662 351 28C351 31.8338 354.108 34.9417 357.942 34.9417Z" fill="white"/>
<rect x="265" y="6" width="44" height="44" rx="5" fill="#8EBFED"/>
<path d="M287 49.875C286.41 49.8752 285.83 49.72 285.319 49.425L279.969 46.2578C279.17 45.8109 279.559 45.6531 279.823 45.5609C280.673 45.2986 281.486 44.9312 282.244 44.4672C282.307 44.4378 282.377 44.4252 282.447 44.4304C282.517 44.4355 282.584 44.4584 282.642 44.4969L286.753 46.9391C286.83 46.9796 286.915 47.0007 287.002 47.0007C287.088 47.0007 287.173 46.9796 287.25 46.9391L303.281 37.6859C303.356 37.641 303.418 37.5773 303.461 37.5012C303.504 37.425 303.527 37.339 303.527 37.2516V18.7422C303.527 18.6534 303.504 18.566 303.46 18.4886C303.417 18.4111 303.354 18.3462 303.278 18.3L287.247 9.05469C287.171 9.01212 287.086 8.98975 286.999 8.98975C286.912 8.98975 286.827 9.01212 286.752 9.05469L270.73 18.3031C270.653 18.3483 270.59 18.4125 270.545 18.4894C270.501 18.5663 270.477 18.6534 270.477 18.7422V37.2438C270.477 37.331 270.5 37.4166 270.544 37.4919C270.589 37.5671 270.652 37.6292 270.728 37.6719L275.125 40.2094C277.508 41.4 278.967 39.9969 278.967 38.5875V20.3203C278.967 20.196 279.017 20.0768 279.104 19.9889C279.192 19.901 279.312 19.8516 279.436 19.8516H281.467C281.592 19.8516 281.711 19.901 281.799 19.9889C281.887 20.0768 281.936 20.196 281.936 20.3203V38.5891C281.936 41.7688 280.205 43.5891 277.189 43.5891C275.888 43.6117 274.608 43.2638 273.497 42.5859L269.283 40.1688C268.771 39.8708 268.347 39.4439 268.052 38.9307C267.757 38.4174 267.602 37.8358 267.602 37.2438V18.7422C267.6 18.1493 267.755 17.5664 268.05 17.0521C268.345 16.5379 268.77 16.1103 269.283 15.8125L285.316 6.55625C285.832 6.2737 286.411 6.12561 287 6.12561C287.589 6.12561 288.168 6.2737 288.684 6.55625L304.716 15.8125C305.227 16.1098 305.652 16.5361 305.947 17.0488C306.242 17.5615 306.398 18.1427 306.398 18.7344V37.2438C306.398 37.8358 306.242 38.4172 305.947 38.9304C305.651 39.4435 305.227 39.8704 304.716 40.1688L288.684 49.425C288.172 49.7205 287.591 49.8757 287 49.875Z" fill="white"/>
<path d="M283.959 31.0516C283.959 30.9272 284.009 30.808 284.097 30.7201C284.185 30.6322 284.304 30.5828 284.428 30.5828H286.502C286.612 30.5832 286.719 30.6228 286.804 30.6946C286.888 30.7663 286.944 30.8657 286.962 30.975C287.275 33.0859 288.212 34.15 292.452 34.15C295.828 34.15 297.267 33.3859 297.267 31.5937C297.267 30.5609 296.859 29.7938 291.611 29.2797C287.223 28.8453 284.511 27.8734 284.511 24.3672C284.511 21.1328 287.237 19.2031 291.808 19.2031C296.944 19.2031 299.486 20.9859 299.808 24.8109C299.813 24.8748 299.804 24.939 299.784 24.9995C299.763 25.0601 299.73 25.1157 299.687 25.163C299.643 25.2103 299.591 25.2483 299.532 25.2745C299.474 25.3008 299.411 25.3147 299.347 25.3156H297.259C297.155 25.3142 297.053 25.2777 296.972 25.212C296.89 25.1463 296.833 25.0551 296.809 24.9531C296.311 22.7328 295.091 22.0234 291.809 22.0234C288.122 22.0234 287.694 23.3078 287.694 24.2703C287.694 25.4359 288.2 25.7766 293.178 26.4344C298.105 27.0859 300.445 28.0078 300.445 31.4703C300.445 34.9641 297.533 36.9641 292.453 36.9641C285.43 36.9734 283.959 33.7531 283.959 31.0516Z" fill="white"/>
</svg>
