<svg width="45" height="40" viewBox="0 0 45 40" fill="none" xmlns="http://www.w3.org/2000/svg">
<path d="M21.75 40L30.8 16H34.9L44.2 40H39.85L37.8 33.7H28.2L25.85 40H21.75ZM29.3 30.2H36.4L32.9 20.5H32.8L29.3 30.2ZM6 34L3.25 31.25L13.45 21.05C12.1833 19.5833 11.0583 18.1083 10.075 16.625C9.09167 15.1417 8.23333 13.6 7.5 12H11.85C12.4167 13.1 13.0417 14.1417 13.725 15.125C14.4083 16.1083 15.1833 17.1167 16.05 18.15C17.55 16.5833 18.8 14.9583 19.8 13.275C20.8 11.5917 21.65 9.83333 22.35 8H0V4H14V0H18V4H32V8H26.35C25.6167 10.3 24.6417 12.5583 23.425 14.775C22.2083 16.9917 20.7167 19.1 18.95 21.1L23.85 26.05L22.35 30.1L16 24L6 34Z" fill="url(#paint0_linear_3_76)"/>
<defs>
<linearGradient id="paint0_linear_3_76" x1="22.1" y1="0" x2="22.1" y2="40" gradientUnits="userSpaceOnUse">
<stop stop-color="#4B7BB7"/>
<stop offset="1" stop-color="#73A0D8"/>
</linearGradient>
</defs>
</svg>
