<svg width="27" height="34" viewBox="0 0 27 34" fill="none" xmlns="http://www.w3.org/2000/svg">
<path d="M13.337 16.5833C14.1401 16.5833 14.8264 16.2974 15.3958 15.7255C15.9653 15.1536 16.25 14.4661 16.25 13.663C16.25 12.8599 15.964 12.1736 15.3921 11.6042C14.8202 11.0347 14.1327 10.75 13.3296 10.75C12.5265 10.75 11.8403 11.036 11.2708 11.6079C10.7014 12.1798 10.4167 12.8673 10.4167 13.6704C10.4167 14.4735 10.7026 15.1597 11.2745 15.7292C11.8464 16.2986 12.5339 16.5833 13.337 16.5833ZM13.3333 30.375C17.0278 27.0139 19.7569 23.9653 21.5208 21.2292C23.2847 18.4931 24.1667 16.0833 24.1667 14C24.1667 10.7281 23.1209 8.04897 21.0295 5.96272C18.9381 3.87647 16.3727 2.83334 13.3333 2.83334C10.294 2.83334 7.72858 3.87647 5.63717 5.96272C3.54572 8.04897 2.5 10.7281 2.5 14C2.5 16.0833 3.40278 18.4931 5.20833 21.2292C7.01389 23.9653 9.72222 27.0139 13.3333 30.375ZM13.3333 33.6667C8.86111 29.8611 5.52083 26.3264 3.3125 23.0625C1.10417 19.7986 0 16.7778 0 14C0 9.83334 1.34028 6.5139 4.02083 4.04168C6.70139 1.56945 9.80556 0.333344 13.3333 0.333344C16.8611 0.333344 19.9653 1.56945 22.6458 4.04168C25.3264 6.5139 26.6667 9.83334 26.6667 14C26.6667 16.7778 25.5625 19.7986 23.3542 23.0625C21.1458 26.3264 17.8056 29.8611 13.3333 33.6667Z" fill="url(#paint0_linear_2_41)"/>
<defs>
<linearGradient id="paint0_linear_2_41" x1="13.3333" y1="0.333344" x2="13.3333" y2="33.6667" gradientUnits="userSpaceOnUse">
<stop stop-color="#4B7BB7"/>
<stop offset="1" stop-color="#73A0D8"/>
</linearGradient>
</defs>
</svg>
